<?xml version="1.0" encoding="UTF-8"?>
<svg id="Capa_1" xmlns="http://www.w3.org/2000/svg" version="1.1" viewBox="0 0 1039.73 227.24">
  <!-- Generator: Adobe Illustrator 30.4.0, SVG Export Plug-In . SVG Version: 2.1.4 Build 226)  -->
  <defs>
    <style>
      .st0 {
        fill: #191919;
      }
    </style>
  </defs>
  <g>
    <path class="st0" d="M75.39,123.95c-12.52,0-23.08-1.96-31.68-5.88-8.6-3.92-15.1-9.68-19.5-17.27-4.4-7.6-6.59-16.84-6.59-27.74,0-16.25,4.97-28.79,14.91-37.63,9.94-8.84,24.03-13.26,42.29-13.26,10.8,0,20.31,1.32,28.53,3.94,8.22,2.63,14.64,6.64,19.28,12.04,4.63,5.4,6.95,12.31,6.95,20.71h-10.18c0-6.78-1.86-12.23-5.59-16.34-3.73-4.11-8.96-7.07-15.7-8.89-6.74-1.81-14.55-2.72-23.44-2.72s-16.99,1.41-24.01,4.23c-7.03,2.82-12.57,7.19-16.63,13.12-4.06,5.93-6.09,13.57-6.09,22.94v3.44c0,9.84,2.05,17.73,6.16,23.65,4.11,5.93,9.75,10.23,16.92,12.9,7.17,2.68,15.34,4.01,24.51,4.01s16.63-.96,23.22-2.87c6.59-1.91,11.73-4.92,15.41-9.03,3.68-4.11,5.52-9.46,5.52-16.06h10.04c0,8.41-2.34,15.34-7.02,20.79-4.68,5.45-11.11,9.46-19.28,12.04s-17.51,3.87-28.03,3.87Z"/>
    <path class="st0" d="M154.38,122.23V23.89h10.18v89.45h61.07v8.89h-71.25Z"/>
    <path class="st0" d="M243.83,122.23V23.89h94.61v8.74h-84.44v34.55h76.7v8.89h-76.7v37.42h85.58v8.74h-95.76Z"/>
    <path class="st0" d="M353.21,122.23l50.6-98.34h12.33l50.61,98.34h-11.18l-13.76-26.81h-64.08l-13.76,26.81h-10.75ZM382.03,86.68h55.34l-17.2-33.69c-.67-1.24-1.43-2.72-2.29-4.44-.86-1.72-1.75-3.51-2.65-5.38-.91-1.86-1.77-3.7-2.58-5.52-.81-1.81-1.56-3.34-2.22-4.59h-1.15c-1.05,2.2-2.22,4.61-3.51,7.24-1.29,2.63-2.51,5.09-3.66,7.38-1.15,2.29-2.06,4.06-2.72,5.3l-17.35,33.69Z"/>
    <path class="st0" d="M484.67,122.23V23.89h70.39c6.11,0,11.35,1.22,15.7,3.66,4.35,2.44,7.67,5.81,9.96,10.11s3.44,9.18,3.44,14.62c0,6.4-1.65,12.04-4.94,16.92-3.3,4.87-8.05,8.27-14.26,10.18l21.65,42.86h-11.32l-20.79-41.29h-59.64v41.29h-10.18ZM494.85,72.2h58.63c6.4,0,11.4-1.86,14.98-5.59,3.58-3.73,5.38-8.46,5.38-14.19,0-3.92-.81-7.36-2.44-10.32-1.63-2.96-3.94-5.28-6.95-6.95-3.01-1.67-6.67-2.51-10.97-2.51h-58.63v39.57Z"/>
    <path class="st0" d="M618.13,122.23l-15.2-98.49h25.52l7.6,59.06c.19,1.24.36,2.75.5,4.51.14,1.77.31,3.56.5,5.38.19,1.82.29,3.39.29,4.73h.86c.57-1.43,1.22-3.1,1.94-5.02.72-1.91,1.43-3.73,2.15-5.45.72-1.72,1.31-3.11,1.79-4.16l27.09-59.06h32.83l6.45,59.06c.29,1.91.5,3.7.65,5.38.14,1.67.24,3.27.29,4.8.05,1.53.07,3.01.07,4.44h.86c.67-1.43,1.36-3.06,2.08-4.87.72-1.81,1.48-3.61,2.29-5.38.81-1.77,1.46-3.23,1.94-4.37l28.67-59.06h24.8l-49.89,98.49h-29.82l-7.46-62.5c-.1-1.43-.22-2.96-.36-4.59-.14-1.62-.24-3.27-.29-4.95-.05-1.67-.12-3.23-.21-4.66h-.86c-.48,1.34-1.05,2.92-1.72,4.73-.67,1.82-1.36,3.56-2.08,5.23-.72,1.67-1.36,3.08-1.93,4.23l-28.82,62.5h-30.53Z"/>
    <path class="st0" d="M750.31,122.23l66.23-98.49h27.81l31.54,98.49h-26.09l-5.59-17.78h-56.05l-11.61,17.78h-26.24ZM800.62,85.39h37.99l-6.45-22.51c-.29-.95-.69-2.39-1.22-4.3-.53-1.91-1.03-3.87-1.51-5.88-.48-2.01-.91-3.82-1.29-5.45-.38-1.62-.67-2.63-.86-3.01h-1.15c-1.15,1.91-2.41,4.06-3.8,6.45-1.39,2.39-2.75,4.71-4.09,6.95-1.34,2.25-2.39,4.04-3.15,5.38l-14.48,22.36Z"/>
    <path class="st0" d="M912.59,122.23l7.02-39.57-37.99-58.92h28.24l24.23,39.42h1.29l38.56-39.42h29.25l-58.78,58.92-7.03,39.57h-24.8Z"/>
  </g>
  <g>
    <g>
      <path class="st0" d="M605.47,203.51c-4.18,0-7.42-1.12-9.73-3.37-2.31-2.24-3.47-5.78-3.47-10.61,0-3.18.54-5.8,1.63-7.86s2.67-3.6,4.73-4.61c2.06-1.01,4.54-1.52,7.43-1.52,1.73,0,3.36.2,4.88.59,1.52.39,2.87.99,4.04,1.79s2.08,1.81,2.74,3.01.98,2.64.98,4.29h-5.28c0-.87-.19-1.63-.57-2.3-.38-.67-.91-1.23-1.58-1.69-.67-.46-1.44-.8-2.3-1.03-.87-.22-1.79-.33-2.76-.33-1.44,0-2.71.19-3.8.57-1.09.38-2,.96-2.72,1.73s-1.26,1.74-1.62,2.89c-.35,1.16-.53,2.51-.53,4.06v.83c0,2.13.3,3.87.91,5.24.6,1.37,1.52,2.37,2.74,3.01,1.22.64,2.74.96,4.55.96,1.55,0,2.91-.24,4.08-.71,1.17-.47,2.09-1.16,2.76-2.07s1-2.01,1-3.33v-.27h-8.63v-4.26h13.75v14.5h-3.66l-.43-3c-.79.79-1.63,1.44-2.52,1.95-.89.51-1.88.89-2.95,1.14-1.08.25-2.3.37-3.66.37Z"/>
      <path class="st0" d="M627.41,203.03v-27.03h14.22c2,0,3.65.34,4.96,1.03,1.31.68,2.3,1.65,2.95,2.91.66,1.26.98,2.75.98,4.45s-.39,3.31-1.18,4.67c-.79,1.35-1.94,2.37-3.47,3.05l5.59,10.91h-5.59l-4.96-10.05h-8.39v10.05h-5.12ZM632.54,188.69h8.71c1.31,0,2.32-.38,3.03-1.14s1.06-1.81,1.06-3.15c0-.87-.16-1.6-.47-2.19-.31-.59-.78-1.04-1.38-1.36s-1.35-.47-2.24-.47h-8.71v8.31Z"/>
      <path class="st0" d="M670.83,203.51c-2.81,0-5.24-.51-7.29-1.52-2.05-1.01-3.62-2.55-4.71-4.63-1.09-2.07-1.63-4.69-1.63-7.84s.54-5.8,1.63-7.86c1.09-2.06,2.66-3.6,4.71-4.61s4.48-1.52,7.29-1.52,5.27.51,7.31,1.52,3.6,2.55,4.69,4.61,1.63,4.68,1.63,7.86-.54,5.77-1.63,7.84-2.65,3.62-4.69,4.63c-2.04,1.01-4.47,1.52-7.31,1.52ZM670.83,199.17c1.36,0,2.57-.2,3.6-.59s1.91-.98,2.62-1.75c.71-.77,1.25-1.73,1.62-2.88.37-1.14.55-2.46.55-3.96v-.87c0-1.52-.18-2.86-.55-4.02s-.91-2.12-1.62-2.89-1.58-1.36-2.62-1.75-2.24-.59-3.6-.59-2.57.2-3.61.59c-1.04.39-1.91.98-2.62,1.75s-1.24,1.74-1.6,2.89c-.36,1.16-.53,2.5-.53,4.02v.87c0,1.5.18,2.82.53,3.96.35,1.14.89,2.1,1.6,2.88.71.78,1.58,1.36,2.62,1.75,1.04.39,2.24.59,3.61.59Z"/>
      <path class="st0" d="M703.41,203.51c-2.36,0-4.4-.38-6.11-1.14s-3.01-1.92-3.92-3.49-1.36-3.51-1.36-5.85v-17.02h5.12v16.86c0,2.07.54,3.64,1.63,4.71s2.63,1.59,4.63,1.59,3.55-.53,4.67-1.59c1.12-1.06,1.67-2.63,1.67-4.71v-16.86h5.12v17.02c0,2.34-.46,4.29-1.38,5.85-.92,1.56-2.23,2.72-3.94,3.49s-3.76,1.14-6.15,1.14Z"/>
      <path class="st0" d="M723.65,203.03v-27.03h13.55c2,0,3.64.36,4.94,1.07,1.3.71,2.28,1.71,2.93,2.99.66,1.29.99,2.82.99,4.61s-.34,3.3-1.02,4.61-1.7,2.33-3.05,3.05c-1.35.72-3.04,1.08-5.06,1.08h-8.15v9.61h-5.12ZM728.78,189.05h8c1.31,0,2.33-.39,3.05-1.16.72-.77,1.08-1.84,1.08-3.21,0-.92-.16-1.69-.47-2.32-.31-.63-.77-1.12-1.38-1.46-.6-.34-1.37-.51-2.28-.51h-8v8.67Z"/>
    </g>
    <g>
      <path class="st0" d="M233.7,204.55v-27.02h13.35c1.87,0,3.41.35,4.65,1.04s2.16,1.66,2.78,2.89c.62,1.24.93,2.67.93,4.29s-.34,3.12-1.02,4.39c-.68,1.27-1.65,2.27-2.9,2.97-1.25.71-2.74,1.06-4.47,1.06h-9.57v10.36h-3.74ZM237.45,190.96h9.34c1.47,0,2.65-.46,3.53-1.38.88-.92,1.32-2.18,1.32-3.78,0-1.08-.18-1.98-.55-2.72-.37-.73-.91-1.31-1.62-1.71-.71-.41-1.6-.61-2.68-.61h-9.34v10.2Z"/>
      <path class="st0" d="M262.86,204.55v-27.02h20.8v3.23h-17.06v8.35h15.32v3.23h-15.32v8.98h17.29v3.23h-21.04Z"/>
      <path class="st0" d="M292.48,204.55v-27.02h14.22c1.84,0,3.37.34,4.59,1.01s2.13,1.6,2.74,2.8c.6,1.2.91,2.57.91,4.12,0,1.87-.42,3.47-1.26,4.81-.84,1.34-2,2.3-3.47,2.88l5.67,11.42h-4.1l-5.28-10.75h-10.28v10.75h-3.74ZM296.22,190.6h10.12c1.5,0,2.67-.46,3.53-1.38.85-.92,1.28-2.18,1.28-3.78,0-1-.18-1.84-.55-2.52-.37-.68-.91-1.21-1.62-1.6s-1.59-.57-2.64-.57h-10.12v9.85Z"/>
      <path class="st0" d="M324.07,204.55v-27.02h19.14v3.23h-15.4v8.67h14.02v3.19h-14.02v11.94h-3.74Z"/>
      <path class="st0" d="M363.27,205.02c-2.81,0-5.22-.51-7.23-1.54-2.01-1.02-3.56-2.57-4.65-4.65-1.09-2.07-1.63-4.67-1.63-7.8s.54-5.76,1.63-7.82c1.09-2.06,2.64-3.61,4.65-4.63,2.01-1.02,4.42-1.54,7.23-1.54s5.22.51,7.23,1.54c2.01,1.02,3.56,2.57,4.65,4.63,1.09,2.06,1.63,4.67,1.63,7.82s-.54,5.72-1.63,7.8c-1.09,2.08-2.64,3.62-4.65,4.65-2.01,1.02-4.42,1.54-7.23,1.54ZM363.27,201.79c1.47,0,2.8-.2,4-.59,1.2-.39,2.21-1.02,3.03-1.87.83-.85,1.46-1.93,1.91-3.23.45-1.3.67-2.84.67-4.63v-.83c0-1.81-.22-3.37-.67-4.67-.45-1.3-1.08-2.38-1.91-3.23-.83-.85-1.84-1.48-3.03-1.87-1.2-.39-2.53-.59-4-.59s-2.84.2-4.02.59c-1.18.39-2.19,1.02-3.03,1.87-.84.85-1.48,1.93-1.91,3.23-.43,1.3-.65,2.86-.65,4.67v.83c0,1.79.22,3.33.65,4.63.43,1.3,1.07,2.38,1.91,3.23.84.85,1.85,1.48,3.03,1.87,1.18.39,2.52.59,4.02.59Z"/>
      <path class="st0" d="M385.13,204.55v-27.02h14.22c1.84,0,3.37.34,4.59,1.01s2.13,1.6,2.74,2.8c.6,1.2.91,2.57.91,4.12,0,1.87-.42,3.47-1.26,4.81-.84,1.34-2,2.3-3.47,2.88l5.67,11.42h-4.1l-5.28-10.75h-10.28v10.75h-3.74ZM388.88,190.6h10.12c1.5,0,2.67-.46,3.53-1.38.85-.92,1.28-2.18,1.28-3.78,0-1-.18-1.84-.55-2.52-.37-.68-.91-1.21-1.62-1.6s-1.59-.57-2.64-.57h-10.12v9.85Z"/>
      <path class="st0" d="M416.73,204.55v-27.02h5.79l6.14,17.53c.16.47.32.99.49,1.56.17.56.33,1.1.47,1.6.14.5.26.93.34,1.3h.28c.08-.39.18-.85.31-1.36.13-.51.28-1.04.43-1.6.16-.55.3-1.05.43-1.5l6.15-17.53h5.75v27.02h-3.74v-15.84c0-.81.01-1.7.04-2.66.03-.96.05-1.84.08-2.64.03-.8.04-1.37.04-1.71h-.31c-.08.34-.21.82-.39,1.44s-.37,1.26-.57,1.93c-.2.67-.37,1.27-.53,1.79l-6.34,17.69h-3.23l-6.34-17.69c-.16-.45-.32-.97-.49-1.56-.17-.59-.34-1.2-.51-1.83-.17-.63-.33-1.22-.49-1.77h-.28c.03.58.05,1.29.06,2.15s.03,1.71.04,2.56.02,1.62.02,2.3v15.84h-3.62Z"/>
      <path class="st0" d="M449.94,204.55l10.68-27.02h4.93l10.71,27.02h-4.06l-2.64-6.7h-13.16l-2.6,6.7h-3.86ZM457.62,194.66h10.68l-3.27-8.47c-.08-.24-.2-.56-.35-.99-.16-.42-.33-.89-.51-1.4-.18-.51-.37-1.04-.55-1.57-.18-.54-.35-1.03-.51-1.48h-.24c-.18.53-.39,1.13-.63,1.81-.24.68-.47,1.35-.71,1.99-.24.64-.43,1.19-.59,1.63l-3.31,8.47Z"/>
      <path class="st0" d="M482.87,204.55v-27.02h3.62l13.12,17.81c.13.16.3.39.51.71.21.32.42.62.63.93.21.3.38.57.51.81h.16v-20.25h3.66v27.02h-3.43l-13.28-18.12c-.18-.29-.45-.7-.81-1.22-.36-.52-.65-.95-.89-1.26h-.2v20.6h-3.62Z"/>
      <path class="st0" d="M526.36,205.02c-2.76,0-5.1-.51-7.01-1.52-1.92-1.01-3.38-2.55-4.39-4.61-1.01-2.06-1.52-4.68-1.52-7.86,0-4.7,1.14-8.21,3.43-10.52,2.29-2.31,5.46-3.47,9.53-3.47,2.31,0,4.36.37,6.14,1.12,1.79.75,3.18,1.88,4.2,3.39s1.52,3.41,1.52,5.69h-3.78c0-1.57-.33-2.88-1-3.9-.67-1.02-1.61-1.79-2.82-2.3-1.21-.51-2.63-.77-4.25-.77-1.89,0-3.52.37-4.88,1.1-1.37.74-2.4,1.87-3.11,3.41-.71,1.54-1.06,3.51-1.06,5.93v.83c0,2.39.35,4.34,1.06,5.85.71,1.51,1.74,2.62,3.09,3.33,1.35.71,2.99,1.06,4.91,1.06,1.68,0,3.13-.25,4.35-.75,1.22-.5,2.17-1.27,2.84-2.3s1-2.34,1-3.92h3.66c0,2.34-.52,4.25-1.56,5.75-1.04,1.5-2.45,2.61-4.23,3.35-1.79.73-3.82,1.1-6.11,1.1Z"/>
      <path class="st0" d="M546.45,204.55v-27.02h20.8v3.23h-17.06v8.35h15.32v3.23h-15.32v8.98h17.29v3.23h-21.04Z"/>
    </g>
  </g>
</svg>