<?xml version="1.0" encoding="UTF-8"?>
<svg id="Capa_1" data-name="Capa 1" xmlns="http://www.w3.org/2000/svg" viewBox="0 0 500 436.5">
  <path d="M228.69,1.08c-12.93.85-20.03,2.13-36.93,6.68-49.71,13.35-97.3,48.29-125.43,92.33-18.89,29.41-31.39,65.06-33.24,94.18-.43,6.68-1.42,12.93-2.27,13.78-.85,1.14-4.83,1.85-10.08,1.85-12.79,0-20.6,5.96-20.74,15.63,0,6.67,2.27,9.8,21.45,29.4,12.93,13.35,16.62,18.04,18.18,23.15,4.26,14.77,14.63,39.35,22.02,51.85,3.55,6.25,12.22,19.03,13.92,20.74,1.14,1.14,3.41,3.83,5.26,6.25,12.64,16.48,35.23,36.08,55.26,47.87,26.13,15.34,39.91,20.88,70.59,28.12,19.46,4.54,59.38,4.83,82.39.57,41.48-7.67,79.12-26.71,111.08-56.54,11.79-10.94,27.27-29.97,35.66-43.75,6.39-10.37,18.75-35.51,18.75-37.92,0-.85.85-3.55,1.99-6.11,5.26-12.5,10.8-38.49,10.8-50.99,0-10.94.28-11.22,12.5-11.22s20.03-6.11,20.17-15.62c0-6.68-2.27-9.8-21.45-29.41-12.93-13.35-16.62-18.04-18.18-23.15-7.96-26.99-24.01-58.52-39.06-76.56-10.8-12.93-23.86-26.14-32.81-32.95-2.27-1.85-5.11-4.12-6.25-5.25-1-1-5.54-4.12-9.94-7.1C340.2,16,305.54,3.78,269.89.94c-17.76-1.28-21.02-1.28-41.19.14h0ZM293.18,20.97c23.01,5.54,42.47,13.07,59.8,23.29,22.58,13.36,48.15,37.22,62.78,58.67,7.11,10.37,17.47,28.55,17.47,30.68,0,.43-3.27,1-7.1,1.28-6.96.71-7.82,1.42-21.45,14.63l-14.21,14.06-5.39-10.79c-2.99-5.82-7.96-14.49-10.94-19.04-7.1-10.79-28.7-32.52-39.63-39.63-10.08-6.53-31.82-17.61-34.8-17.76-1.14,0-4.55-.85-7.81-1.99-12.22-4.26-23.3-5.82-41.91-5.82s-29.69,1.56-41.9,5.82c-3.27,1.14-6.53,1.99-7.53,1.99-3.13,0-23.58,10.23-33.67,16.76-12.79,8.38-33.81,29.4-42.19,42.19-14.63,22.44-23.16,47.73-24.86,73.3-.71,11.36-.57,12.36,2.56,15.2,2.7,2.56,4.97,3.12,13.49,3.12,5.68,0,10.65.57,11.08,1.14.85,1.28-51.28,55.68-53.41,55.68-.71,0-9.8-8.81-20.17-19.6-28.12-28.98-33.38-34.95-32.67-36.08.43-.71,5.39-1.14,11.08-1.14,14.63,0,15.05-.71,17.19-25.28,1-10.65,2.56-22.3,3.55-25.85,5.97-23.16,6.82-25.43,14.63-42.61,4.83-10.66,16.48-30.12,21.59-36.08,1.99-2.27,3.55-4.54,3.55-5.11,0-1.85,28.13-29.27,34.38-33.52,3.41-2.27,6.39-4.54,6.82-4.97,2.84-3.41,38.63-22.58,42.04-22.58.71,0,2.84-.85,4.83-1.85,3.27-1.7,8.1-3.12,26.99-8.24,18.61-4.83,64.63-4.83,85.8.14h0ZM275.57,87.16c41.76,9.09,75.71,35.09,94.17,72.3q8.66,17.33-4.26,31.25c-11.93,13.21-13.92,17.19-11.79,24.86,2.13,7.53,8.66,11.36,19.6,11.36,6.68,0,9.09.57,9.66,2.13.99,2.56-2.7,20.17-6.82,32.67-10.51,31.96-35.79,60.8-67.19,76.56-57.82,28.84-129.69,10.65-167.61-42.47-7.67-10.65-15.77-26.84-16.9-33.38-.85-4.69-.28-5.68,9.8-16.05,11.51-11.93,14.21-17.76,11.93-25.57-1.99-7.1-8.81-10.94-19.46-10.94-6.54,0-9.09-.57-9.66-2.13-1.99-4.97,6.39-34.95,13.92-49.72,16.76-33.24,51.28-61.08,85.65-69.04,3.13-.71,7.96-1.85,10.65-2.55,8.66-2.28,36.79-1.85,48.3.71h0ZM453.69,179.49c14.06,14.63,25.85,27.41,26.14,28.41.42,1.56-1.71,1.99-9.38,1.99-5.54,0-11.08.42-12.36.85-3.98,1.56-5.97,8.09-6.96,22.59-1.56,23.86-6.54,43.6-16.76,67.47-3.84,8.66-18.75,33.81-23.16,38.92-1.99,2.27-3.55,4.54-3.55,5.11,0,1.85-27.56,28.7-32.81,32.1-2.84,1.7-5.96,3.97-7.1,5.11-4.55,4.4-39.49,23.86-42.9,23.86-1,0-3.27.85-5.26,1.85-3.98,1.99-15.34,5.25-31.25,9.09-15.48,3.55-63.07,3.55-78.13-.15-17.9-4.26-24.86-6.53-41.19-13.21-38.35-15.77-74.58-48.58-95.74-87.08-3.55-6.39-6.54-12.22-6.54-12.78s3.27-1.42,7.1-1.71c6.96-.71,7.81-1.42,21.45-14.63l14.21-14.06,5.4,10.8c8.67,17.05,15.48,26.56,29.26,40.2,21.87,21.87,43.47,33.66,76.71,41.76,12.93,3.27,38.35,3.69,52.56.85,34.94-6.68,58.95-19.03,82.38-42.61,26.71-26.56,41.76-59.23,44.32-95.6.86-10.94.57-11.93-2.41-15.2-2.98-3.13-4.55-3.55-13.64-3.55-5.68,0-10.66-.57-11.08-1.14-.85-1.28,51.28-55.68,53.41-55.68.86,0,13.07,11.93,27.27,26.42h0ZM453.69,179.49"/>
  <path d="M244.32,128.92c-2.27,2.28-2.84,4.69-2.84,12.65,0,9.66,0,9.8-4.26,10.65-7.96,1.57-19.32,7.81-23.58,13.07-12.64,16.05-11.79,35.94,2.42,50.14,8.8,8.81,16.76,11.5,33.95,11.5,12.08,0,14.06.43,18.75,3.55,12.93,8.81,12.79,25.85-.42,34.09-4.83,3.12-7.1,3.55-18.33,3.55s-13.49-.43-18.32-3.55c-5.68-3.55-10.08-10.23-10.08-15.48,0-8.1-9.52-12.5-14.63-6.82-4.69,5.11-1.42,19.03,6.68,29.26,4.26,5.25,15.62,11.51,23.58,13.07,4.26.85,4.26,1,4.26,10.37,0,10.8,2.42,15.77,7.96,15.77,6.25,0,9.09-4.55,9.09-14.92,0-6.25.57-9.51,1.85-9.94,20.03-6.96,26-11.65,31.68-24.29,6.25-14.06,3.27-28.69-8.1-40.2-8.81-8.81-16.76-11.5-33.95-11.5-10.94,0-14.34-.57-18.18-2.84-13.49-8.24-13.49-26.42-.14-34.8,4.83-3.12,7.1-3.55,18.61-3.55s13.78.43,18.47,3.55c5.4,3.69,9.66,10.51,9.66,15.48,0,8.1,9.52,12.5,14.63,6.82,3.41-3.69,2.98-10.23-1-19.32-4.69-10.65-11.51-16.76-23.16-21.02l-9.66-3.69-.71-10.23c-.57-7.95-1.28-10.65-3.41-12.22-3.83-2.7-7.39-2.56-10.8.85h0ZM244.32,128.92"/>
</svg>