<?xml version="1.0" encoding="UTF-8"?>
<svg id="Capa_1" data-name="Capa 1" xmlns="http://www.w3.org/2000/svg" viewBox="0 0 478.18 433.9">
  <path d="M285.23,433.9H31.22c-17.21,0-31.22-14-31.22-31.22V84.48c0-2.12.84-4.16,2.34-5.66L78.82,2.34c1.5-1.5,3.54-2.34,5.66-2.34h200.76c17.21,0,31.22,14,31.22,31.21v232.46c0,4.42-3.58,8-8,8s-8-3.58-8-8V31.21c0-8.39-6.83-15.21-15.22-15.21H87.79L16,87.79v314.89c0,8.39,6.83,15.22,15.22,15.22h254.02c8.39,0,15.22-6.83,15.22-15.22v-68.32c0-4.42,3.58-8,8-8s8,3.58,8,8v68.32c0,17.21-14,31.22-31.22,31.22Z"/>
  <path d="M65.36,92.48H8c-4.42,0-8-3.58-8-8s3.58-8,8-8h57.36c6.13,0,11.12-4.99,11.12-11.12V8c0-4.42,3.58-8,8-8s8,3.58,8,8v57.36c0,14.95-12.17,27.12-27.12,27.12Z"/>
  <path d="M268.85,145.74H47.61c-4.42,0-8-3.58-8-8s3.58-8,8-8h221.24c4.42,0,8,3.58,8,8s-3.58,8-8,8Z"/>
  <path d="M268.85,85.31h-133.84c-4.42,0-8-3.58-8-8s3.58-8,8-8h133.84c4.42,0,8,3.58,8,8s-3.58,8-8,8Z"/>
  <path d="M268.85,201.3H47.61c-4.42,0-8-3.58-8-8s3.58-8,8-8h221.24c4.42,0,8,3.58,8,8s-3.58,8-8,8Z"/>
  <path d="M268.85,256.87H47.61c-4.42,0-8-3.58-8-8s3.58-8,8-8h221.24c4.42,0,8,3.58,8,8s-3.58,8-8,8Z"/>
  <path d="M292.15,354.1c-.43,0-.86-.03-1.29-.1-2.09-.34-3.97-1.5-5.21-3.22l-33.52-46.55c-2.58-3.59-1.77-8.58,1.82-11.17l171.23-123.29c10.91-7.86,26.19-5.37,34.05,5.54l14.36,19.95c7.86,10.91,5.37,26.19-5.54,34.04l-171.23,123.29c-1.37.99-3.01,1.51-4.67,1.51ZM269.8,301.36l24.17,33.56,164.73-118.62h0c3.75-2.7,4.61-7.96,1.91-11.71l-14.36-19.95c-2.7-3.75-7.96-4.61-11.71-1.91l-164.73,118.62Z"/>
  <path d="M228.84,364.34c-2.55,0-4.97-1.22-6.49-3.33-1.77-2.46-2-5.71-.59-8.39l29.79-56.79c1.29-2.46,3.75-4.07,6.52-4.26,2.76-.19,5.44,1.06,7.06,3.31l33.52,46.55c1.62,2.25,1.96,5.18.9,7.74-1.06,2.56-3.38,4.39-6.11,4.83l-63.31,10.24c-.43.07-.85.1-1.28.1ZM259.71,314.73l-16.34,31.16,34.73-5.62-18.39-25.54Z"/>
  <path d="M207.4,387.46c-2.76,0-5.44-1.42-6.92-3.98-2.7-4.64-5.82-7.58-9.26-8.72-5.7-1.9-12.53,1.25-19.14,4.29-7.82,3.6-16.69,7.68-24.57,2.19-6.46-4.51-6.62-11.78-6.73-16.59-.03-1.53-.09-4.07-.46-4.84-1.91-1.25-11.56,2.47-14.75,3.71-8.56,3.31-17.41,6.73-23.23.02-5.18-5.97-1.61-13.52.75-18.52.08-.17.16-.34.25-.53-1.12.31-2.28.65-3.3.95-5.28,1.55-11.66,3.43-18.33,3.77-4.32,6.63-10.01,12.84-16.92,18.16-3.5,2.7-8.52,2.05-11.22-1.45-2.7-3.5-2.05-8.52,1.45-11.22,3.72-2.87,6.89-5.91,9.54-9.03-14.22-7.72-21.69-27.19-22.63-42.49-.66-10.86,1.95-18.46,7.57-21.98,2.46-1.55,6.72-3.01,13.01-1.19,9.68,2.79,20.22,12.15,25.08,22.25,4.28,8.89,4.78,19.22,2.03,29.49,2-.51,3.98-1.09,5.9-1.66,8.43-2.48,18-5.29,23.47,2.41,3.85,5.41,2.07,11.46-.11,16.46.32-.12.63-.24.92-.36,9.55-3.69,21.43-8.28,30.34-1.42,6.37,4.91,6.53,12.26,6.64,17.13.02,1.08.06,2.57.19,3.54,1.97-.36,5.78-2.11,8.42-3.33,8.09-3.73,19.18-8.82,30.87-4.95,7.26,2.41,13.33,7.75,18.05,15.86,2.22,3.82.93,8.72-2.89,10.94-1.27.74-2.65,1.09-4.01,1.09ZM58.26,295.38c-.69,2.86-.82,9.28,1.53,17.33,2.76,9.49,7.65,16.67,13.07,19.22,0,0,.02,0,.02.01,3.32-8.56,3.18-16.75.29-22.76-3.51-7.29-11.18-12.65-14.91-13.8ZM58.74,294.09s0,0,0,0Z"/>
</svg>