<?xml version="1.0" encoding="UTF-8"?>
<svg id="Capa_1" data-name="Capa 1" xmlns="http://www.w3.org/2000/svg" viewBox="0 0 436.5 436.5">
  <defs>
    <style>
      .cls-1 {
        fill: #212121;
      }
    </style>
  </defs>
  <path class="cls-1" d="M278.8,158.01l12.8-12.8,21.23-21.22c.31-.31.62-.62.86-1.01,2.42-3.36,2.11-8.12-.86-11.16-3.36-3.36-8.82-3.36-12.17,0l-25.98,25.98c-18.65-7.02-37.69-10.85-56.42-10.85-55.17,0-114,33.01-153.48,86.22-2.19,3.04-2.19,7.18,0,10.22,18.26,24.5,40.58,44.79,64.84,59.46l-17.79,17.79c-3.35,3.35-3.35,8.82,0,12.17,1.72,1.64,3.9,2.5,6.09,2.5,1.64,0,3.35-.47,4.76-1.4l.16-.16c.39-.23.78-.55,1.17-.94l65.78-65.78,89.03-89.03ZM179.94,231.44c-.39-1.17-.78-2.42-1.02-3.59-.16-.62-.31-1.17-.39-1.72-.16-.78-.31-1.56-.39-2.5-.31-1.95-.39-3.9-.39-5.77,0-.94.08-1.87.16-2.89.16-1.64.39-3.2.7-4.84.55-2.65,1.33-5.23,2.34-7.72.47-.94.86-1.79,1.25-2.57.23-.47.47-.86.7-1.25.08-.08.08-.16.08-.16.62-1.17,1.33-2.26,2.11-3.35,1.17-1.72,2.5-3.28,3.9-4.76.08-.08.16-.23.31-.31.08-.08.16-.23.31-.31,1.09-1.17,2.26-2.18,3.51-3.12,1.25-1.01,2.5-1.87,3.82-2.73.47-.31,1.01-.62,1.56-.94.39-.23.78-.39,1.17-.62.08-.08.23-.08.31-.16.39-.16.7-.39,1.01-.62.62-.39,1.09-.86,1.56-1.33,1.4-1.64,2.11-3.67,2.11-5.7,0-.62-.08-1.25-.23-1.87-.16-.62-.39-1.25-.7-1.87v-.08c-.39-.78-.86-1.4-1.41-2.03-.23-.31-.54-.55-.86-.78-.62-.55-1.33-.94-2.03-1.25-.47-.23-.94-.39-1.4-.47-1.95-.39-3.98-.23-5.85.7l-.47.23c-.94.47-1.87,1.02-2.73,1.48-.23.16-.54.31-.78.47-1.09.7-2.11,1.4-3.12,2.11-2.26,1.56-4.37,3.28-6.32,5.15-.47.47-.94.94-1.4,1.4-.16.08-.31.23-.55.47-.31.31-.54.62-.78.94-1.87,1.87-3.51,3.98-4.99,6.16-.23.16-.31.39-.47.55-.62.86-1.25,1.8-1.72,2.73-.62,1.09-1.25,2.26-1.87,3.43-.08.16-.16.31-.31.47-.47,1.02-1.02,2.11-1.33,3.04-.78,1.72-1.4,3.51-2.03,5.31-.08.23-.16.55-.23.78-.16.31-.24.62-.31.86-.08.16-.08.31-.08.47-.7,2.65-1.25,5.38-1.64,8.12-.08.78-.16,1.56-.23,2.34-.16,1.64-.23,3.36-.23,5.07s.08,3.2.23,4.76c.23,2.81.7,5.62,1.33,8.43.23,1.01.55,2.11.86,3.12.31,1.09.7,2.19,1.09,3.28.78,2.11,1.64,4.21,2.73,6.32.08.16.16.23.16.39.08.16.15.23.23.39l.08.08-25.2,25.2c-22-12.64-42.6-30.43-59.61-52.12,36.2-45.88,87.71-74.13,135.77-74.13,14.2,0,28.72,2.42,42.99,7.1l-80.99,81c-.16-.23-.23-.55-.31-.78Z"/>
  <path class="cls-1" d="M371.73,213.18c-18.26-24.58-40.65-44.87-64.92-59.46l-12.41,12.41c22,12.64,42.53,30.43,59.61,52.12-36.13,45.88-87.63,74.21-135.77,74.21-14.2,0-28.71-2.5-42.99-7.18l-13.5,13.5c18.65,7.02,37.85,10.85,56.49,10.85,55.25,0,114-33.08,153.48-86.22,2.26-3.04,2.26-7.18,0-10.22Z"/>
  <path class="cls-1" d="M258.51,222.15c0,.62-.08,1.25-.16,1.79-.16.86-.31,1.72-.47,2.5-.08.47-.23,1.01-.39,1.48-.16.7-.39,1.48-.62,2.26-.23,1.01-.62,2.11-1.01,3.12-.39.86-.78,1.79-1.17,2.65-1.48,2.96-3.28,5.77-5.38,8.27-.78.94-1.56,1.8-2.42,2.65-2.96,2.97-6.4,5.54-10.3,7.49-1.33.7-2.73,1.33-4.14,1.79-.23.08-.55.23-.78.31-1.33.47-2.73.86-4.14,1.17-1.17.31-2.5.55-3.75.7-2.89.39-5.77.47-8.66.23-.7,0-1.41-.08-2.11-.23h-.31c-.86-.16-1.72-.31-2.58-.47-.94-.16-1.79-.39-2.65-.62-.39-.08-.78-.23-1.09-.31-.54-.16-1.17-.39-1.72-.55-.16-.08-.23-.08-.39-.16l-12.95,12.95c1.48.78,2.97,1.48,4.53,2.19.94.39,1.87.7,2.81,1.09.16,0,.31.08.47.16,1.17.47,2.34.86,3.28,1.09.16.08.31.08.47.08,1.25.31,2.58.62,3.9.94,1.09.23,2.19.39,3.28.55.23.08.55.08.86.08.55.16,1.17.16,1.79.23.08.08.16.08.23.08.47.08,1.01.08,1.48.08,1.25.08,2.58.16,3.9.16,1.64,0,3.28-.08,4.84-.23h.23c.7,0,1.33-.08,1.48-.08.94-.08,1.72-.23,2.58-.39,1.33-.23,2.73-.55,4.06-.86,1.09-.23,2.19-.55,3.28-.86,1.09-.31,2.11-.7,3.2-1.09,1.09-.39,2.11-.78,3.2-1.25,1.02-.47,2.11-.94,3.12-1.48.7-.23,1.4-.62,2.03-1.01,1.17-.62,2.34-1.33,2.96-1.79.7-.47,1.41-.94,2.11-1.48,1.17-.78,2.19-1.56,3.28-2.42,7.88-6.4,13.81-14.75,17.32-23.96.31-.78.62-1.64.94-2.57.23-.62.39-1.17.55-1.79.31-.94.54-1.87.78-2.81.23-.94.47-1.87.62-2.73v-.08c.16-1.01.31-1.95.47-2.97.39-2.58.55-5.23.55-7.8,0-2.26-.16-4.6-.39-6.87l-.47-3.04c-.31-2.19-.86-4.37-1.56-6.55,0-.23-.08-.55-.16-.78-.16-.47-.31-.86-.55-1.33-.86-2.5-1.87-4.99-3.12-7.49-.16-.31-.31-.55-.47-.86l-12.95,12.95c.39,1.01.7,2.11.94,3.12.23.7.39,1.48.62,2.19.31,1.17.47,2.34.62,3.51,0,.39.08.7.08,1.01.16,1.4.23,2.73.23,4.14,0,.62,0,1.25-.08,1.87,0,.7-.08,1.4-.16,2.03Z"/>
  <path class="cls-1" d="M218.25,0C97.93,0,0,97.93,0,218.25s97.93,218.25,218.25,218.25,218.25-97.93,218.25-218.25S338.57,0,218.25,0ZM218.25,419.33c-110.88,0-201.08-90.2-201.08-201.08S107.37,17.17,218.25,17.17s201.08,90.2,201.08,201.08-90.2,201.08-201.08,201.08Z"/>
</svg>