<?xml version="1.0" encoding="UTF-8"?>
<svg id="Capa_1" data-name="Capa 1" xmlns="http://www.w3.org/2000/svg" viewBox="0 0 1812.85 220.52">
  <defs>
    <style>
      .cls-1 {
        fill: #fff;
      }
    </style>
  </defs>
  <g>
    <path class="cls-1" d="M93.61,125.77h3.58v33.41c-9.55,5.97-19.33,10.26-32.22,10.26C-21.66,169.45-21.66,0,64.97,0c12.89,0,22.67,4.3,32.22,10.26v33.41h-3.58c-1.67-21.96-9.55-40.09-28.64-40.09-61.1,0-61.1,162.29,0,162.29,19.09,0,26.97-18.38,28.64-40.09Z"/>
    <path class="cls-1" d="M128.94,60.14l.24,29.12c7.88-17.9,20.52-32.93,33.41-35.8,15.51-3.34,28.88,6.2,30.79,15.99,1.19,5.49-2.63,9.31-6.92,9.31-2.15,0-4.3-1.19-5.97-3.58-6.44-9.55-10.02-17.9-18.14-16.94-12.17,1.43-33.41,25.54-33.41,67.06v24.58c0,10.74,1.91,15.99,9.07,15.99v3.58h-36.04v-3.58c7.16,0,9.07-5.25,9.07-15.99v-65.39c0-9.31-2.39-12.41-7.16-13.6v-3.34c5.97-.95,15.99-4.3,22.19-9.31l2.86,1.91Z"/>
    <path class="cls-1" d="M273.33,148.44l2.86,2.15c-10.26,14.32-22.19,18.61-34.37,18.85-65.39,1.19-69.45-113.36,0-113.36,17.42,0,39.14,15.27,39.14,43.91h-70.88c-4.3,29.83,7.4,64.92,31.74,65.63,7.4.24,20.29-1.43,31.5-17.18ZM264.02,96.42c0-22.19-6.92-36.75-22.19-36.75-16.71,0-27.45,16.23-31.26,36.75h53.46Z"/>
    <path class="cls-1" d="M369.27,169.68c-8.59,0-16.47-5.73-16.47-22.2v-.48c-9.31,11.69-21.48,22.43-37.23,22.43-36.51,0-41.53-46.06-2.86-64.68,8.11-4.06,25.3-9.79,40.09-13.6-.48-21.24-8.11-31.74-17.66-31.74-7.4,0-15.99,6.44-23.15,19.33-1.43,2.39-3.82,3.58-6.2,3.58-4.53,0-9.31-4.53-5.73-11.69,4.53-8.83,18.14-15.27,31.98-15.27,18.85,0,38.66,11.46,38.66,42.48v54.41c0,9.07,2.39,11.69,5.25,11.69s6.21-2.63,8.35-4.77l2.63,2.39c-4.06,4.77-11.22,8.11-17.66,8.11ZM352.56,95.46c-9.78,2.86-14.8,4.3-25.54,8.83-31.98,13.84-30.31,57.28-1.67,55.85,11.46-.48,20.76-10.5,27.45-19.09l-.24-45.58Z"/>
    <path class="cls-1" d="M415.57,152.26c0,9.07,2.39,11.69,5.25,11.69s6.2-2.63,8.35-4.77l2.63,2.39c-4.06,4.77-11.22,8.11-17.66,8.11-8.59,0-16.47-5.73-16.47-22.2V61.81h-11.93v-3.58c13.84-2.86,21.96-9.79,26.25-21.96h3.58v21.96h16.71v3.58h-16.71v90.45Z"/>
    <path class="cls-1" d="M519.15,148.44l2.86,2.15c-10.26,14.32-22.19,18.61-34.37,18.85-65.39,1.19-69.45-113.36,0-113.36,17.42,0,39.14,15.27,39.14,43.91h-70.88c-4.3,29.83,7.4,64.92,31.74,65.63,7.4.24,20.29-1.43,31.5-17.18ZM509.84,96.42c0-22.19-6.92-36.75-22.19-36.75-16.71,0-27.45,16.23-31.26,36.75h53.46Z"/>
    <path class="cls-1" d="M603.87,28.64c0-9.31-2.39-12.41-7.16-13.6v-3.34c5.97-.95,15.99-4.3,22.19-9.31l2.86,1.91v145.58c0,10.74,1.91,15.99,9.07,15.99v3.58h-26.97v-14.08c-5.97,6.68-13.13,12.89-23.63,14.08-56.8,6.44-67.06-93.08-13.13-109.07,4.77-1.43,9.55-2.15,14.08-2.15,8.59,0,16.47,2.39,22.67,5.97V28.64ZM603.87,68.49c-5.49-3.1-12.41-5.73-19.81-5.73-5.01,0-10.02.95-14.8,3.82-32.7,18.85-22.91,99.28,10.74,98.56,10.02-.24,18.85-8.59,23.87-15.99v-80.67Z"/>
    <path class="cls-1" d="M671.41,169.45l.95-3.58c7.16,0,10.5-5.25,13.36-15.99l34.37-127.92c2.86-10.74,2.39-15.99-4.77-15.99l.95-3.58h44.39c54.65,0,40.33,66.82-4.06,79.95,45.34,6.92,33.89,87.11-38.9,87.11h-46.3ZM722.49,84.25l-17.9,66.82c-2.86,10.74-2.15,14.8,5.01,14.8h9.07c50.83,0,61.1-81.62,20.05-81.62h-16.23ZM723.44,80.67h16.23c36.04,0,52.74-74.7,20.05-74.7h-7.16c-7.16,0-10.26,4.06-13.13,14.8l-15.99,59.9Z"/>
    <path class="cls-1" d="M806.26,85.2c-2.15-8.59-3.58-15.99-6.92-15.99-1.91,0-4.3,1.91-7.4,6.44l-1.91-1.91c7.16-9.31,13.6-15.51,19.09-15.51,4.77,0,8.83,5.01,11.69,17.42l17.42,76.13c21-29.83,37.95-65.15,28.88-81.62-4.53-8.35.72-14.08,5.97-14.08,3.82,0,7.4,2.86,7.64,9.55,1.43,35.8-73.03,154.89-116.7,154.89-2.39,0-4.53-.24-6.68-.95-10.5-3.34-5.25-14.56,7.16-11.22,2.63.72,5.25.96,7.88.96,20.29,0,37.23-21.24,53.46-39.86l-19.57-84.25Z"/>
  </g>
  <g>
    <g>
      <path class="cls-1" d="M978.01,35.94c-17.35-4.88-32.44-14.66-48.73-21.73,26.12,25.66,57.95,73.07,98.55,72.12,38.31-.9,69.3-48.9,95.69-72.12-18.42,7.76-33.92,17.84-53.94,22.79-31.5,7.79-60.3,7.73-91.57-1.06Z"/>
      <path class="cls-1" d="M1027.83,106.5c-40.6-.96-72.43,46.45-98.55,72.12,16.3-7.06,31.38-16.85,48.73-21.73,31.27-8.79,60.07-8.85,91.57-1.06,20.02,4.95,35.52,15.03,53.94,22.79-26.39-23.22-57.38-71.21-95.69-72.12Z"/>
    </g>
    <path class="cls-1" d="M1192.18,128.89c4.19,3.6,10.85,5.4,19.99,5.4,15.47,0,23.21-5,23.21-14.99,0-4.3-1.18-7.41-3.55-9.35-2.36-1.93-6.29-3.22-11.77-3.87l-26.27-2.9c-20.31-2.15-30.46-11.71-30.46-28.69,0-9.99,3.97-17.97,11.93-23.94,7.95-5.96,19.66-8.95,35.14-8.95s27.32,3.01,35.22,9.03c7.9,6.02,12.11,14.4,12.65,25.14h-23.53c-.54-5.8-2.8-10.13-6.77-12.98-3.98-2.85-9.83-4.27-17.57-4.27s-13.22,1.29-17.08,3.87c-3.87,2.58-5.8,6.12-5.8,10.64,0,7.41,4.67,11.71,14.02,12.89l24.34,2.58c11.93,1.18,20.52,3.95,25.79,8.3,5.26,4.35,7.9,11.15,7.9,20.39,0,22.67-15.96,34.01-47.87,34.01-16.87,0-29.2-3.38-36.99-10.15-7.79-6.77-12.06-15.85-12.81-27.24h23.21c.54,6.45,2.9,11.47,7.09,15.07Z"/>
    <path class="cls-1" d="M1365.77,140.26c-9.13,7.31-22.67,10.96-40.62,10.96-12.89,0-23.67-2.39-32.32-7.17-8.65-4.78-15.07-11.34-19.26-19.66-4.19-8.33-6.29-17.81-6.29-28.45s2.1-19.26,6.29-27.48c4.19-8.22,10.64-14.75,19.34-19.58,8.7-4.84,19.5-7.25,32.4-7.25,17.19,0,30.35,3.57,39.49,10.72,9.13,7.15,14.56,17.49,16.28,31.03h-24.66c-1.29-7.74-4.46-13.48-9.51-17.25-5.05-3.76-12.14-5.64-21.28-5.64-10.64,0-18.83,3.04-24.58,9.11-5.75,6.07-8.62,14.86-8.62,26.35s2.77,21.01,8.3,27.24c5.53,6.23,13.62,9.35,24.26,9.35,9.67,0,17.14-2.07,22.4-6.21,5.26-4.14,8.43-10.45,9.51-18.94h24.98c-1.61,14.61-6.99,25.57-16.12,32.88Z"/>
    <path class="cls-1" d="M1389.62,43.23h39.17l42.55,82.52h2.42V43.23h23.21v106.38h-39.17l-42.87-83.33h-2.26v83.33h-23.05V43.23Z"/>
    <path class="cls-1" d="M1591.65,50.4c7.74,4.78,13.46,11.15,17.17,19.1,3.71,7.95,5.56,16.82,5.56,26.59s-1.85,18.86-5.56,26.92c-3.71,8.06-9.46,14.51-17.25,19.34-7.79,4.84-17.49,7.25-29.09,7.25h-53.19V43.23h53.19c11.71,0,21.44,2.39,29.17,7.17ZM1557,131.39c11.5,0,19.72-2.95,24.66-8.86,4.94-5.91,7.41-14.72,7.41-26.43s-2.5-20.41-7.5-26.11c-5-5.69-13.19-8.54-24.58-8.54h-23.69v69.95h23.69Z"/>
    <path class="cls-1" d="M1695.36,125.75h-49.32l-9.35,23.85h-23.85l39.97-106.38h35.62l39.97,106.38h-24.02l-9.03-23.85ZM1689.07,107.86l-17.25-45.13h-2.58l-17.08,44.97,36.91.16Z"/>
    <path class="cls-1" d="M1760.15,43.23v88h52.7v18.37h-76.72V43.23h24.02Z"/>
  </g>
</svg>