<?xml version="1.0" encoding="UTF-8"?>
<svg id="Capa_1" data-name="Capa 1" xmlns="http://www.w3.org/2000/svg" viewBox="0 0 1801.85 306.88">
  <defs>
    <style>
      .cls-1 {
        fill: #191919;
      }
    </style>
  </defs>
  <g>
    <path class="cls-1" d="M105.62,186.08c-22.89,0-42.2-3.58-57.92-10.75-15.72-7.17-27.61-17.7-35.65-31.57C4,129.86,0,112.97,0,93.04,0,63.33,9.09,40.4,27.26,24.24,45.43,8.08,71.19,0,104.57,0c19.74,0,37.13,2.41,52.16,7.2,15.03,4.81,26.77,12.14,35.25,22.01,8.46,9.87,12.71,22.51,12.71,37.86h-18.61c0-12.4-3.4-22.36-10.22-29.87-6.82-7.51-16.38-12.93-28.7-16.25-12.32-3.31-26.6-4.97-42.85-4.97s-31.06,2.58-43.9,7.73c-12.85,5.16-22.98,13.14-30.4,23.99-7.42,10.84-11.13,24.81-11.13,41.94v6.29c0,17.99,3.75,32.41,11.26,43.24,7.51,10.84,17.83,18.7,30.93,23.58,13.11,4.9,28.05,7.33,44.81,7.33s30.4-1.76,42.45-5.25c12.05-3.49,21.45-8.99,28.17-16.51,6.73-7.51,10.09-17.3,10.09-29.36h18.36c0,15.38-4.28,28.05-12.83,38.01-8.56,9.96-20.31,17.3-35.25,22.01s-32.01,7.08-51.25,7.08v.02Z"/>
    <path class="cls-1" d="M250.03,182.93V3.14h18.61v163.54h111.65v16.25s-130.26,0-130.26,0Z"/>
    <path class="cls-1" d="M413.56,182.93V3.14h172.97v15.98h-154.38v63.17h140.23v16.25h-140.23v68.41h156.46v15.98h-175.07.02Z"/>
    <path class="cls-1" d="M613.54,182.93L706.05,3.14h22.54l92.53,179.79h-20.44l-25.16-49.01h-117.15l-25.16,49.01h-19.67ZM666.23,117.94h101.17l-31.45-61.59c-1.22-2.27-2.61-4.97-4.19-8.12-1.57-3.14-3.2-6.42-4.84-9.84-1.66-3.4-3.24-6.76-4.72-10.09-1.48-3.31-2.85-6.11-4.06-8.39h-2.1c-1.92,4.02-4.06,8.43-6.42,13.24s-4.59,9.31-6.69,13.49-3.77,7.42-4.97,9.69l-31.72,61.59-.02.02Z"/>
    <path class="cls-1" d="M853.88,182.93V3.14h128.69c11.17,0,20.75,2.23,28.7,6.69,7.95,4.46,14.02,10.62,18.21,18.48,4.19,7.86,6.29,16.78,6.29,26.73,0,11.7-3.02,22.01-9.03,30.93-6.03,8.9-14.72,15.12-26.07,18.61l39.58,78.36h-20.7l-38.01-75.49h-109.04v75.49h-18.61l-.02-.02ZM872.49,91.47h107.19c11.7,0,20.84-3.4,27.39-10.22,6.55-6.82,9.84-15.47,9.84-25.94,0-7.17-1.48-13.46-4.46-18.87s-7.2-9.65-12.71-12.71c-5.5-3.05-12.19-4.59-20.06-4.59h-107.19v72.34-.02Z"/>
    <path class="cls-1" d="M1097.87,182.93l-27.79-180.06h46.66l13.89,107.98c.35,2.27.66,5.03.91,8.25.26,3.24.57,6.51.91,9.84s.53,6.2.53,8.65h1.57c1.04-2.61,2.23-5.67,3.55-9.18,1.32-3.49,2.61-6.82,3.93-9.96,1.32-3.14,2.39-5.69,3.27-7.61l49.53-107.98h60.02l11.79,107.98c.53,3.49.91,6.76,1.19,9.84.26,3.05.44,5.98.53,8.78.09,2.8.13,5.5.13,8.12h1.57c1.22-2.61,2.49-5.59,3.8-8.9,1.32-3.31,2.71-6.6,4.19-9.84s2.67-5.91,3.55-7.99l52.42-107.98h45.34l-91.21,180.06h-54.52l-13.64-114.26c-.18-2.61-.4-5.41-.66-8.39-.26-2.96-.44-5.98-.53-9.05-.09-3.05-.22-5.91-.38-8.52h-1.57c-.88,2.45-1.92,5.34-3.14,8.65-1.22,3.33-2.49,6.51-3.8,9.56-1.32,3.05-2.49,5.63-3.53,7.73l-52.69,114.26h-55.82v.04Z"/>
    <path class="cls-1" d="M1339.53,182.93L1460.61,2.87h50.84l57.66,180.06h-47.7l-10.22-32.51h-102.47l-21.23,32.51h-47.97,0ZM1431.51,115.58h69.45l-11.79-41.15c-.53-1.74-1.26-4.37-2.23-7.86-.97-3.49-1.88-7.08-2.76-10.75-.88-3.67-1.66-6.98-2.36-9.96-.69-2.96-1.22-4.81-1.57-5.5h-2.1c-2.1,3.49-4.41,7.42-6.95,11.79s-5.03,8.61-7.48,12.71c-2.45,4.11-4.37,7.39-5.76,9.84l-26.47,40.88.02.02Z"/>
    <path class="cls-1" d="M1636.21,182.93l12.83-72.34L1579.59,2.87h51.63l44.3,72.07h2.36L1748.38,2.87h53.48l-107.46,107.72-12.85,72.34h-45.34.02Z"/>
  </g>
  <g>
    <g>
      <path class="cls-1" d="M1134.11,303.25c-10.06,0-17.85-2.69-23.41-8.11-5.56-5.39-8.35-13.91-8.35-25.53,0-7.65,1.3-13.95,3.92-18.91s6.42-8.66,11.38-11.09,10.92-3.66,17.88-3.66c4.16,0,8.08.48,11.74,1.42,3.66.94,6.9,2.38,9.72,4.31s5,4.35,6.59,7.24c1.59,2.89,2.36,6.35,2.36,10.32h-12.7c0-2.09-.46-3.92-1.37-5.53s-2.19-2.96-3.8-4.07c-1.61-1.11-3.46-1.92-5.53-2.48-2.09-.53-4.31-.79-6.64-.79-3.46,0-6.52.46-9.14,1.37-2.62.91-4.81,2.31-6.54,4.16s-3.03,4.19-3.9,6.95c-.84,2.79-1.28,6.04-1.28,9.77v2c0,5.12.72,9.31,2.19,12.61,1.44,3.3,3.66,5.7,6.59,7.24s6.59,2.31,10.95,2.31c3.73,0,7-.58,9.82-1.71,2.81-1.13,5.03-2.79,6.64-4.98s2.41-4.84,2.41-8.01v-.65h-20.76v-10.25h33.08v34.89h-8.81l-1.03-7.22c-1.9,1.9-3.92,3.46-6.06,4.69s-4.52,2.14-7.1,2.74c-2.6.6-5.53.89-8.81.89l-.02.07Z"/>
      <path class="cls-1" d="M1186.9,302.09v-65.03h34.21c4.81,0,8.78.82,11.93,2.48,3.15,1.64,5.53,3.97,7.1,7,1.59,3.03,2.36,6.62,2.36,10.71s-.94,7.96-2.84,11.24c-1.9,3.25-4.67,5.7-8.35,7.34l13.45,26.25h-13.45l-11.93-24.18h-20.19v24.18h-12.32l.02.02ZM1199.24,267.59h20.96c3.15,0,5.58-.91,7.29-2.74s2.55-4.35,2.55-7.58c0-2.09-.38-3.85-1.13-5.27s-1.88-2.5-3.32-3.27-3.25-1.13-5.39-1.13h-20.96v19.99h0Z"/>
      <path class="cls-1" d="M1291.36,303.25c-6.76,0-12.61-1.23-17.54-3.66-4.93-2.43-8.71-6.13-11.33-11.14-2.62-4.98-3.92-11.28-3.92-18.86s1.3-13.95,3.92-18.91c2.62-4.96,6.4-8.66,11.33-11.09s10.78-3.66,17.54-3.66,12.68,1.23,17.59,3.66,8.66,6.13,11.28,11.09c2.62,4.96,3.92,11.26,3.92,18.91s-1.3,13.88-3.92,18.86c-2.62,4.98-6.38,8.71-11.28,11.14-4.91,2.43-10.75,3.66-17.59,3.66ZM1291.36,292.81c3.27,0,6.18-.48,8.66-1.42s4.6-2.36,6.3-4.21,3.01-4.16,3.9-6.93c.89-2.74,1.32-5.92,1.32-9.53v-2.09c0-3.66-.43-6.88-1.32-9.67-.89-2.79-2.19-5.1-3.9-6.95s-3.8-3.27-6.3-4.21c-2.5-.94-5.39-1.42-8.66-1.42s-6.18.48-8.69,1.42-4.6,2.36-6.3,4.21-2.98,4.19-3.85,6.95c-.87,2.79-1.28,6.01-1.28,9.67v2.09c0,3.61.43,6.78,1.28,9.53.84,2.74,2.14,5.05,3.85,6.93,1.71,1.88,3.8,3.27,6.3,4.21,2.5.94,5.39,1.42,8.69,1.42Z"/>
      <path class="cls-1" d="M1369.74,303.25c-5.68,0-10.59-.91-14.7-2.74s-7.24-4.62-9.43-8.4-3.27-8.44-3.27-14.07v-40.95h12.32v40.56c0,4.98,1.3,8.76,3.92,11.33,2.62,2.57,6.33,3.83,11.14,3.83s8.54-1.28,11.24-3.83c2.69-2.55,4.02-6.33,4.02-11.33v-40.56h12.32v40.95c0,5.63-1.11,10.32-3.32,14.07-2.21,3.75-5.37,6.54-9.48,8.4s-9.05,2.74-14.8,2.74h.05Z"/>
      <path class="cls-1" d="M1418.44,302.09v-65.03h32.6c4.81,0,8.76.87,11.88,2.57s5.49,4.11,7.05,7.19c1.59,3.1,2.38,6.78,2.38,11.09s-.82,7.94-2.45,11.09c-1.64,3.15-4.09,5.61-7.34,7.34s-7.31,2.6-12.17,2.6h-19.61v23.12h-12.32l-.02.02ZM1430.78,268.46h19.25c3.15,0,5.61-.94,7.34-2.79s2.6-4.43,2.6-7.72c0-2.21-.38-4.07-1.13-5.58s-1.85-2.69-3.32-3.51c-1.44-.82-3.3-1.23-5.49-1.23h-19.25v20.86-.02Z"/>
    </g>
    <g>
      <path class="cls-1" d="M239.69,305.75v-65.01h32.12c4.5,0,8.2.84,11.19,2.5s5.2,3.99,6.69,6.95c1.49,2.98,2.24,6.42,2.24,10.32s-.82,7.51-2.45,10.56c-1.64,3.06-3.97,5.46-6.98,7.15-3.01,1.71-6.59,2.55-10.75,2.55h-23.02v24.92h-9l-.02.05ZM248.71,273.05h22.47c3.54,0,6.38-1.11,8.49-3.32s3.18-5.24,3.18-9.09c0-2.6-.43-4.76-1.32-6.54-.89-1.76-2.19-3.15-3.9-4.11-1.71-.99-3.85-1.47-6.45-1.47h-22.47v24.54h0Z"/>
      <path class="cls-1" d="M309.84,305.75v-65.01h50.04v7.77h-41.04v20.09h36.86v7.77h-36.86v21.6h41.6v7.77h-50.62.02Z"/>
      <path class="cls-1" d="M381.1,305.75v-65.01h34.21c4.43,0,8.11.82,11.04,2.43,2.94,1.61,5.12,3.85,6.59,6.74,1.44,2.89,2.19,6.18,2.19,9.91,0,4.5-1.01,8.35-3.03,11.57s-4.81,5.53-8.35,6.93l13.64,27.47h-9.86l-12.7-25.86h-24.73v25.86h-9v-.05ZM390.1,272.19h24.35c3.61,0,6.42-1.11,8.49-3.32,2.04-2.21,3.08-5.24,3.08-9.09,0-2.41-.43-4.43-1.32-6.06-.89-1.64-2.19-2.91-3.9-3.85s-3.83-1.37-6.35-1.37h-24.35v23.7h0Z"/>
      <path class="cls-1" d="M457.1,305.75v-65.01h46.05v7.77h-37.05v20.86h33.73v7.67h-33.73v28.73h-9v-.02Z"/>
      <path class="cls-1" d="M551.41,306.88c-6.76,0-12.56-1.23-17.39-3.71-4.84-2.45-8.56-6.18-11.19-11.19-2.62-4.98-3.92-11.24-3.92-18.77s1.3-13.86,3.92-18.81c2.62-4.96,6.35-8.69,11.19-11.14,4.84-2.45,10.63-3.71,17.39-3.71s12.56,1.23,17.39,3.71c4.84,2.45,8.56,6.18,11.19,11.14s3.92,11.24,3.92,18.81-1.3,13.76-3.92,18.77c-2.62,5-6.35,8.71-11.19,11.19-4.84,2.45-10.63,3.71-17.39,3.71ZM551.41,299.11c3.54,0,6.74-.48,9.62-1.42s5.32-2.45,7.29-4.5c2-2.04,3.51-4.64,4.6-7.77s1.61-6.83,1.61-11.14v-2c0-4.35-.53-8.11-1.61-11.24s-2.6-5.73-4.6-7.77c-2-2.04-4.43-3.56-7.29-4.5-2.89-.94-6.09-1.42-9.62-1.42s-6.83.48-9.67,1.42-5.27,2.45-7.29,4.5c-2.02,2.04-3.56,4.64-4.6,7.77-1.03,3.13-1.56,6.88-1.56,11.24v2c0,4.31.53,8.01,1.56,11.14,1.03,3.13,2.57,5.73,4.6,7.77,2.02,2.04,4.45,3.56,7.29,4.5s6.06,1.42,9.67,1.42Z"/>
      <path class="cls-1" d="M604,305.75v-65.01h34.21c4.43,0,8.11.82,11.04,2.43s5.12,3.85,6.59,6.74c1.44,2.89,2.19,6.18,2.19,9.91,0,4.5-1.01,8.35-3.03,11.57s-4.81,5.53-8.35,6.93l13.64,27.47h-9.86l-12.7-25.86h-24.73v25.86h-9v-.05ZM613.03,272.19h24.35c3.61,0,6.42-1.11,8.49-3.32,2.04-2.21,3.08-5.24,3.08-9.09,0-2.41-.43-4.43-1.32-6.06-.89-1.64-2.19-2.91-3.9-3.85s-3.83-1.37-6.35-1.37h-24.35v23.7h0Z"/>
      <path class="cls-1" d="M680.03,305.75v-65.01h13.93l14.77,42.17c.38,1.13.77,2.38,1.18,3.75.41,1.35.79,2.65,1.13,3.85s.63,2.24.82,3.13h.67c.19-.94.43-2.04.75-3.27s.67-2.5,1.03-3.85c.38-1.32.72-2.53,1.03-3.61l14.8-42.17h13.83v65.01h-9v-38.11c0-1.95.02-4.09.1-6.4s.12-4.43.19-6.35.1-3.3.1-4.11h-.75c-.19.82-.51,1.97-.94,3.46s-.89,3.03-1.37,4.64-.89,3.06-1.28,4.31l-15.25,42.56h-7.77l-15.25-42.56c-.38-1.08-.77-2.33-1.18-3.75-.41-1.42-.82-2.89-1.23-4.4s-.79-2.94-1.18-4.26h-.67c.07,1.4.12,3.1.14,5.17s.07,4.11.1,6.16.05,3.9.05,5.53v38.11h-8.76Z"/>
      <path class="cls-1" d="M759.93,305.75l25.69-65.01h11.86l25.77,65.01h-9.77l-6.35-16.12h-31.66l-6.26,16.12h-9.29,0ZM778.41,281.96h25.69l-7.87-20.38c-.19-.58-.48-1.35-.84-2.38-.38-1.01-.79-2.14-1.23-3.37-.43-1.23-.89-2.5-1.32-3.78-.43-1.3-.84-2.48-1.23-3.56h-.58c-.43,1.28-.94,2.72-1.52,4.35s-1.13,3.25-1.71,4.79-1.03,2.86-1.42,3.92l-7.96,20.38-.02.02Z"/>
      <path class="cls-1" d="M839.15,305.75v-65.01h8.71l31.56,42.85c.31.38.72.94,1.23,1.71.51.77,1.01,1.49,1.52,2.24.51.72.91,1.37,1.23,1.95h.38v-48.72h8.81v65.01h-8.25l-31.95-43.59c-.43-.7-1.08-1.68-1.95-2.94s-1.56-2.29-2.14-3.03h-.48v49.56h-8.71l.05-.02Z"/>
      <path class="cls-1" d="M943.78,306.88c-6.64,0-12.27-1.23-16.87-3.66-4.62-2.43-8.13-6.13-10.56-11.09s-3.66-11.26-3.66-18.91c0-11.31,2.74-19.75,8.25-25.31,5.51-5.56,13.14-8.35,22.93-8.35,5.56,0,10.49.89,14.77,2.69,4.31,1.8,7.65,4.52,10.1,8.16s3.66,8.2,3.66,13.69h-9.09c0-3.78-.79-6.93-2.41-9.38-1.61-2.45-3.87-4.31-6.78-5.53-2.91-1.23-6.33-1.85-10.22-1.85-4.55,0-8.47.89-11.74,2.65-3.3,1.78-5.77,4.5-7.48,8.2-1.71,3.71-2.55,8.44-2.55,14.27v2c0,5.75.84,10.44,2.55,14.07,1.71,3.63,4.19,6.3,7.43,8.01,3.25,1.71,7.19,2.55,11.81,2.55,4.04,0,7.53-.6,10.47-1.8s5.22-3.06,6.83-5.53c1.61-2.48,2.41-5.63,2.41-9.43h8.81c0,5.63-1.25,10.22-3.75,13.83s-5.89,6.28-10.18,8.06c-4.31,1.76-9.19,2.65-14.7,2.65l-.02.02Z"/>
      <path class="cls-1" d="M992.12,305.75v-65.01h50.04v7.77h-41.04v20.09h36.86v7.77h-36.86v21.6h41.6v7.77h-50.62.02Z"/>
    </g>
  </g>
</svg>